<svg xmlns="http://www.w3.org/2000/svg" width="14.7" height="17.07" viewBox="0 0 14.7 17.07">
    <defs>
        <style>
            .prefix__cls-2{fill:none;stroke:#00a2d1;stroke-linecap:round;stroke-linejoin:round;stroke-width:.5px}.prefix__cls-4{stroke:none}
        </style>
    </defs>
    <g id="prefix__sps_blue_editlocation_icon_hover" transform="translate(-1097.753 -512.932)">
        <g id="prefix__Group_5474" data-name="Group 5474" transform="translate(25.253 471.932)">
            <g id="prefix__Path_1847" fill="none" data-name="Path 1847">
                <path d="M5.553 0a5.553 5.553 0 0 1 5.553 5.553c0 3.067-5.553 11.106-5.553 11.106S0 8.62 0 5.553A5.553 5.553 0 0 1 5.553 0z" class="prefix__cls-4" transform="translate(1072.5 41)"/>
                <path fill="#00a2d1" d="M5.553 1C3.043 1 1 3.042 1 5.553c0 1.756 2.529 6.21 4.553 9.31 2.024-3.1 4.553-7.554 4.553-9.31C10.106 3.043 8.063 1 5.553 1m0-1c3.067 0 5.553 2.486 5.553 5.553 0 3.067-5.553 11.106-5.553 11.106S0 8.619 0 5.553C0 2.486 2.486 0 5.553 0z" transform="translate(1072.5 41)"/>
            </g>
            <g id="prefix__sps_editname_icon_home_hover" transform="rotate(-14.98 731.145 -4071.487)">
                <g id="prefix__sps_square_icon_edit_white">
                    <g id="prefix__Group_2832" data-name="Group 2832">
                        <g id="prefix__Group_2830" data-name="Group 2830">
                            <path id="prefix__Path_1047" d="M0 4.712V5.89h1.179l4.712-4.713L4.713 0z" class="prefix__cls-2" data-name="Path 1047" transform="translate(0 1.178)"/>
                            <path id="prefix__Path_1049" d="M0 1.178L1.179 0l1.178 1.178-1.178 1.178z" class="prefix__cls-2" data-name="Path 1049" transform="translate(4.711)"/>
                        </g>
                    </g>
                </g>
            </g>
            <g id="prefix__Ellipse_625" fill="none" stroke="#00a2d1" data-name="Ellipse 625" transform="translate(1075.093 43.223)">
                <circle cx="2.963" cy="2.963" r="2.963" class="prefix__cls-4"/>
                <circle cx="2.963" cy="2.963" r="2.463"/>
            </g>
        </g>
    </g>
</svg>
