<svg xmlns="http://www.w3.org/2000/svg" width="39.999" height="39.999" viewBox="0 0 39.999 39.999">
    <g id="prefix__sps_round_icon_train_hover" transform="translate(4838 10528)">
        <g id="prefix__Group_1974" data-name="Group 1974" transform="translate(-4826.932 -10518.944)">
            <g id="prefix__Group_1970" data-name="Group 1970">
                <g id="prefix__Group_1969" data-name="Group 1969">
                    <g id="prefix__Group_1968" data-name="Group 1968">
                        <path id="prefix__Path_776" d="M326.257 269.144v1.673h-1.813l.728 1.177-1.387-.062-.686-1.115H312.35l-.7 1.115-1.311.062.728-1.177H309.1v-1.673h3.007l.865-1.395h-1.64v-1.395h2.5l.533-.856a3.014 3.014 0 0 1-2.678-2.993v-10.013a3.014 3.014 0 0 1 3.013-3.012h6.109a3.012 3.012 0 0 1 3.012 3.012v10.014a3.012 3.012 0 0 1-2.675 2.993l.533.856h2.346v1.395h-1.484l.865 1.395zm-3.829-12.928v-2.036a1 1 0 0 0-1-1h-7.336a1 1 0 0 0-1 1v2.036a1 1 0 0 0 1 1h7.336a1 1 0 0 0 .999-1zm0 6.6a1.116 1.116 0 1 0-1.115 1.115 1.116 1.116 0 0 0 1.114-1.118zm-.354 6.332l-.856-1.395h-6.948l-.873 1.395zm-1.713-2.79l-.513-.837h-4.184l-.525.837zm-.931-14.267v-1.31a.18.18 0 0 0-.179-.182h-2.987a.181.181 0 0 0-.182.182v1.31a.181.181 0 0 0 .182.182h2.987a.18.18 0 0 0 .178-.186zm-4.114 10.725a1.116 1.116 0 1 0-1.116 1.115 1.116 1.116 0 0 0 1.115-1.118z" data-name="Path 776" transform="translate(-309.1 -249.48)" style="fill:#445c67"/>
                    </g>
                </g>
            </g>
        </g>
        <g id="prefix__Group_1985" data-name="Group 1985" transform="translate(-4838 -10528)">
            <g id="prefix__Ellipse_97" data-name="Ellipse 97" style="stroke:#445c67;stroke-width:2px;fill:none">
                <circle cx="20" cy="20" r="20" style="stroke:none"/>
                <circle cx="20" cy="20" r="19" style="fill:none"/>
            </g>
        </g>
    </g>
</svg>
