<svg xmlns="http://www.w3.org/2000/svg" width="39.999" height="39.999" viewBox="0 0 39.999 39.999">
    <g id="prefix__sps_round_icon_airport_active" transform="translate(4975 10528)">
        <g id="prefix__Group_1976" data-name="Group 1976" transform="translate(-4966.447 -10518.441)">
            <path id="prefix__Path_777" d="M259.244-3643.425c-.467.277-.655.283-.925.039-.363-.328-.375-.458-.09-1.056l-.512-.213-3.542-1.449c-.176-.072-.322-.164-.345-.375a.467.467 0 0 1 .264-.455 4.016 4.016 0 0 1 2.79-.644c.594.06 1.191.091 1.786.136.475.036.95.078 1.425.108a.24.24 0 0 0 .176-.076c.554-.668 1.08-1.361 1.658-2.007.7-.787 1.465-1.523 2.173-2.306a4.673 4.673 0 0 0 .489-.837l-1.436-.61-9.241-3.919c-.044-.019-.088-.039-.131-.06a.419.419 0 0 1-.148-.7 2.431 2.431 0 0 1 2.232-.847c1.117.149 2.236.283 3.353.424a.743.743 0 0 1 .107.017.291.291 0 0 0 .35-.134 5.128 5.128 0 0 1 1.158-1.112l.09-.061c.453-.287.481-.284.85.091.157.159.321.312.467.481a.25.25 0 0 1 .048.215c-.124.265-.27.52-.414.791l1.047.141c.354.047.706.086 1.058.137a.291.291 0 0 0 .31-.114 5.079 5.079 0 0 1 1.143-1.075l.06-.04c.457-.292.478-.29.855.088.154.154.3.315.462.46a.192.192 0 0 1 .052.266l-.37.7c.2.023.4.054.6.07.576.047 1.153.118 1.729.122a1.422 1.422 0 0 0 1.074-.469c.619-.652 1.262-1.282 1.919-1.9a5.818 5.818 0 0 1 2.3-1.246c.218-.068.442-.118.665-.166a.713.713 0 0 1 .863.824 6.416 6.416 0 0 1-1.421 3.024c-.594.666-1.217 1.308-1.855 1.932a1.493 1.493 0 0 0-.477 1.111c0 .577.074 1.154.117 1.731.006.083.019.166.029.249.184-.079.361-.166.546-.229a.235.235 0 0 1 .2.047c.246.232.476.48.722.713a.156.156 0 0 1 .039.219c-.212.334-.417.674-.65.992a3.73 3.73 0 0 1-.483.489.281.281 0 0 0-.1.278c.1.765.182 1.532.272 2.3a.186.186 0 0 0 .021.043c.175-.1.344-.216.523-.309.263-.137.266-.131.47.075s.413.407.608.621a.24.24 0 0 1 .043.214 6.53 6.53 0 0 1-.539.87 7.439 7.439 0 0 1-.735.747.281.281 0 0 0-.1.265c.159 1.249.294 2.5.478 3.748a2.464 2.464 0 0 1-.741 2.219c-.308.31-.618.241-.786-.164l-3.7-8.9-.75-1.8c-.018-.044-.039-.087-.062-.137a3.667 3.667 0 0 0-1.045.663c-1.047 1.027-2.12 2.028-3.194 3.026-.264.245-.575.438-.858.663a.26.26 0 0 0-.094.185c.085 1.186.178 2.37.268 3.555a3.947 3.947 0 0 1-.7 2.565.421.421 0 0 1-.413.209.426.426 0 0 1-.345-.307q-.8-1.993-1.606-3.984c-.034-.049-.055-.099-.081-.162z" data-name="Path 777" transform="translate(-253.503 3661.025)" style="fill:#00a2d1"/>
        </g>
        <g id="prefix__Group_520" data-name="Group 520" transform="translate(-4975 -10528)">
            <g id="prefix__Ellipse_97" data-name="Ellipse 97" style="stroke:#00a2d1;stroke-width:2px;fill:none">
                <circle cx="20" cy="20" r="20" style="stroke:none"/>
                <circle cx="20" cy="20" r="19" style="fill:none"/>
            </g>
        </g>
    </g>
</svg>
