<svg xmlns="http://www.w3.org/2000/svg" width="11.608" height="14.38" viewBox="0 0 11.608 14.38">
    <g id="prefix__sps_solo_icon_torsion_active" transform="translate(12316.92 8505.268)">
        <g id="prefix__Group_2162" data-name="Group 2162" transform="translate(-12316.92 -8505.268)">
            <g id="prefix__Group_2161" data-name="Group 2161">
                <g id="prefix__Polygon_9" data-name="Polygon 9" style="fill:#f18700">
                    <path d="M6.673 5.56H.903L3.787.943 6.673 5.56z" style="stroke:none" transform="rotate(-90 3.788 3.788)"/>
                    <path d="M3.788 1.887L1.804 5.06h3.967L3.788 1.887m0-1.887l3.787 6.06H0L3.788 0z" style="stroke:none;fill:#f18700" transform="rotate(-90 3.788 3.788)"/>
                </g>
                <path id="prefix__Subtraction_68" d="M5.068 10.136A5.068 5.068 0 0 1 0 5.068h.2A4.865 4.865 0 1 0 5.121.2V0a5.068 5.068 0 0 1 3.531 8.651 5.035 5.035 0 0 1-3.584 1.485z" data-name="Subtraction 68" transform="translate(.872 3.644)" style="fill:#fff;stroke:#f18700;stroke-width:1.2px"/>
            </g>
        </g>
    </g>
</svg>
