<svg xmlns="http://www.w3.org/2000/svg" width="39.999" height="39.999" viewBox="0 0 39.999 39.999">
    <g id="prefix__sps_round_icon_firetruck_hover" transform="translate(4906 10528)">
        <g id="prefix__Group_1975" data-name="Group 1975" transform="translate(-4895.938 -10518.944)">
            <path id="prefix__Path_778" d="M295.236-1032.259c-.252.017-.505 0-.777 0v-.225-1.169a.534.534 0 0 0-.6-.607c-.267 0-.536-.005-.8 0a.515.515 0 0 0-.54.557v1.242c0 .064-.006.127-.008.186h-2.516v-.829a.3.3 0 0 1 .07.174.512.512 0 0 0 .6.433.5.5 0 0 0 .538-.479c.011-.517.009-1.034 0-1.551a.505.505 0 0 0-.452-.494.568.568 0 0 0-.653.312 2.012 2.012 0 0 0-.065.3h-8.545l-.028-.17a.53.53 0 0 0-.62-.453.514.514 0 0 0-.517.526v1.5a.493.493 0 0 0 .509.507.52.52 0 0 0 .628-.438c.01-.059.023-.118.035-.176l.026.009v.828H279v-1.417a.523.523 0 0 0-.567-.569h-.8a.52.52 0 0 0-.576.575v1.223c0 .065-.008.128-.014.2h-.733c-.443 0-.626.185-.626.633V-1015.281h2.143v2.346a.49.49 0 0 0 .555.549h1.022a.5.5 0 0 0 .549-.56v-2.324h11.615v2.326a.506.506 0 0 0 .55.558h.968c.435 0 .608-.171.608-.607v-2.299h2.129c.006-.07.013-.117.013-.164v-16.215a.55.55 0 0 0-.6-.588zm-12.374-.842h5.791v.839h-5.791zm-4.674 14.877a1.129 1.129 0 0 1-1.139-1.129 1.123 1.123 0 0 1 1.118-1.13 1.132 1.132 0 0 1 1.124 1.091 1.143 1.143 0 0 1-1.103 1.167zm6.959-6.5h-8.09v-5.7h8.09zm1.209 0v-5.7h8.091v5.7zm6.988 6.5a1.134 1.134 0 0 1-1.128-1.14 1.122 1.122 0 0 1 1.11-1.118 1.127 1.127 0 0 1 1.131 1.138 1.14 1.14 0 0 1-1.113 1.119z" data-name="Path 778" transform="translate(-275.674 1035.025)" style="fill:#445c67"/>
        </g>
        <g id="prefix__Group_1984" data-name="Group 1984" transform="translate(-4906 -10528)">
            <g id="prefix__Ellipse_97" data-name="Ellipse 97" style="stroke:#445c67;stroke-width:2px;fill:none">
                <circle cx="20" cy="20" r="20" style="stroke:none"/>
                <circle cx="20" cy="20" r="19" style="fill:none"/>
            </g>
        </g>
    </g>
</svg>
