<svg xmlns="http://www.w3.org/2000/svg" width="15.212" height="13.849" viewBox="0 0 15.212 13.849">
    <defs>
        <style>
            .prefix__cls-1{fill:#fff}
        </style>
    </defs>
    <g id="prefix__sps_square_icon_changeprofile_white" transform="translate(-395.689 -161.9)">
        <path id="prefix__Path_1054" d="M397.708 168.081l4.928-2.017-2.41-1.01a4.527 4.527 0 0 1 7.254 1.8 1 1 0 0 0 1.874-.7 6.517 6.517 0 0 0-11.1-1.923l-2.562-1.073z" class="prefix__cls-1" data-name="Path 1054"/>
        <path id="prefix__Path_1055" d="M410.9 174.5l-2.019-4.928-4.928 2.017 2.416 1.013a4.767 4.767 0 0 1-5.426.562 4.138 4.138 0 0 1-1.836-2.365 1 1 0 0 0-1.872.7 6.517 6.517 0 0 0 11.1 1.924z" class="prefix__cls-1" data-name="Path 1055"/>
    </g>
</svg>
