<svg xmlns="http://www.w3.org/2000/svg" width="16.447" height="16.447" viewBox="0 0 16.447 16.447">
    <defs>
        <style>
            .prefix__cls-3{stroke:none}
        </style>
    </defs>
    <g id="prefix__sps_blue_settings_icon_hover" transform="translate(-1636.776 -487.776)">
        <g id="prefix__Group_5526" fill="none" data-name="Group 5526" transform="translate(-189.224 1.776)">
            <g id="prefix__Ellipse_628" stroke="#00a2d1" data-name="Ellipse 628" transform="translate(1831.224 491.224)">
                <circle cx="3" cy="3" r="3" class="prefix__cls-3"/>
                <circle cx="3" cy="3" r="2.5"/>
            </g>
            <g id="prefix__Path_1856" stroke-linecap="round" stroke-linejoin="round" data-name="Path 1856">
                <path d="M9.859 0l3.022 1.252-.471 2.785 2.79-.472 1.252 3.022-2.3 1.636 2.3 1.636-1.252 3.023-2.79-.472.472 2.785-3.023 1.252-1.636-2.3-1.636 2.3L3.565 15.2l.472-2.785-2.785.472L0 9.859l2.3-1.635L0 6.588l1.252-3.023 2.785.472-.472-2.785L6.588 0l1.636 2.3z" class="prefix__cls-3" transform="translate(1826 486)"/>
                <path fill="#00a2d1" d="M10.213 1.229L9.039 2.882c-.188.264-.492.42-.815.42-.324 0-.628-.156-.816-.42L6.234 1.229l-1.55.642.339 1.999c.054.32-.05.645-.28.874-.188.189-.443.293-.706.293-.056 0-.112-.005-.167-.014l-2-.339-.641 1.55 1.653 1.174c.264.188.42.492.42.816 0 .323-.156.627-.42.815l-1.653 1.174.642 1.55 1.999-.339c.056-.01.111-.014.167-.014.263 0 .518.104.707.293.229.23.333.555.279.874l-.339 2 1.55.641 1.174-1.653c.188-.264.492-.42.816-.42.323 0 .627.156.815.42l1.174 1.653 1.55-.642-.339-1.999c-.054-.32.05-.645.28-.874.188-.189.443-.293.706-.293.056 0 .112.005.167.014l2 .339.641-1.55-1.653-1.174c-.264-.188-.42-.492-.42-.815 0-.324.156-.628.42-.816l1.653-1.174-.642-1.55-1.999.339c-.055.01-.111.014-.167.014-.263 0-.518-.104-.707-.293-.229-.23-.333-.555-.279-.874l.339-2-1.55-.641M6.588 0l1.636 2.303L9.859 0l3.023 1.252-.472 2.785 2.785-.472 1.252 3.023-2.303 1.636 2.303 1.635-1.252 3.023-2.785-.472.472 2.785-3.023 1.252-1.635-2.303-1.636 2.303-3.023-1.252.472-2.785-2.785.472L0 9.859l2.303-1.635L0 6.588l1.252-3.023 2.785.472-.472-2.785L6.588 0z" transform="translate(1826 486)"/>
            </g>
        </g>
    </g>
</svg>
