<svg xmlns="http://www.w3.org/2000/svg" xmlns:xlink="http://www.w3.org/1999/xlink" width="21" height="20.865" viewBox="0 0 21 20.865">
    <defs>
        <linearGradient id="prefix__linear-gradient" x1=".5" x2=".5" y1=".338" y2="1" gradientUnits="objectBoundingBox">
            <stop offset="0" stop-color="#00a2d1"/>
            <stop offset="1" stop-color="#005169" stop-opacity="0"/>
        </linearGradient>
        <linearGradient id="prefix__linear-gradient-3" y1=".85" y2="0" xlink:href="#prefix__linear-gradient"/>
        <style>
            .prefix__cls-3{fill:url(#prefix__linear-gradient)}
        </style>
    </defs>
    <g id="prefix__sps_solo_icon_moment_active" transform="translate(13098.458 8488.158)">
        <g id="prefix__Group_2094" data-name="Group 2094" transform="translate(-679 102)">
            <path id="prefix__Path_731" d="M-11738-8575v-15l-5 15-5 5-5-5-5-15v15" data-name="Path 731" transform="translate(-660.958)" style="stroke:#707070;fill:none"/>
            <path id="prefix__Path_732" d="M-11778-8575h20.967" data-name="Path 732" transform="translate(-641.441)" style="stroke-width:2px;stroke:#bfbfbf;fill:none"/>
        </g>
        <g id="prefix__Group_2100" data-name="Group 2100" transform="translate(-775 102)">
            <g id="prefix__Group_1962" data-name="Group 1962" transform="translate(-12968 -8735)">
                <path id="prefix__Path_755" d="M-11553-8575v-15l5 15" class="prefix__cls-3" data-name="Path 755" transform="translate(12198 8735)"/>
                <path id="prefix__Path_756" d="M-11538-8575v-15l-5 15" class="prefix__cls-3" data-name="Path 756" transform="translate(12203 8735)"/>
                <path id="prefix__Path_757" d="M-11533-8575l5 5 5-5" data-name="Path 757" transform="translate(12183 8735)"/>
            </g>
            <path id="prefix__Path_770" d="M-11738-8575v-15l-5 15-5 5-5-5-5-15v15" data-name="Path 770" transform="translate(-564.958)" style="stroke:#00a2d1;fill:none"/>
            <path id="prefix__Path_771" d="M-11778-8575h20.967" data-name="Path 771" transform="translate(-545.441)" style="stroke:#f18700;stroke-width:2px;fill:none"/>
        </g>
    </g>
</svg>
