<svg xmlns="http://www.w3.org/2000/svg" width="323" height="68" viewBox="0 0 323 68">
    <defs>
        <style>
            .prefix__cls-2{fill:#fff}
        </style>
    </defs>
    <g id="prefix__technoform_enabled" transform="translate(-431 -921)">
        <rect id="prefix__Rectangle_2342" width="323" height="68" fill="#363636" data-name="Rectangle 2342" rx="3" transform="translate(431 921)"/>
        <g id="prefix__Group_5385" data-name="Group 5385" transform="translate(119.37 590.651)">
            <g id="prefix__Group_5203" data-name="Group 5203" transform="translate(837.603 49.503)">
                <path id="prefix__Path_1753" d="M-225.436 323.02a2.809 2.809 0 0 0-1-.261 7.264 7.264 0 0 1-5.447-7.438 7.118 7.118 0 0 1 4.763-6.707 7.818 7.818 0 0 1 8.37 1.992c1.048 1.169 1.048 1.169-.306 1.932l-.231.129c-.4.224-.79.6-1.2.63-.445.029-.544-.6-.861-.9a4.326 4.326 0 0 0-4.581-.95 3.9 3.9 0 0 0-2.7 3.46 4.767 4.767 0 0 0 .261 2.436 3.9 3.9 0 0 0 3.383 2.594 4.046 4.046 0 0 0 4.123-1.82c.192-.293.31-.368.632-.165.64.4 1.3.776 1.979 1.121.32.164.329.306.149.583a7.166 7.166 0 0 1-4.995 3.245c-.109.019-.259-.048-.318.115h-.744a.819.819 0 0 0-.638 0z" class="prefix__cls-2" data-name="Path 1753" transform="translate(-179.692 -.275)"/>
                <path id="prefix__Path_1754" d="M-432.973 312.867q4.888-.009 9.776-.024c.254 0 .335.073.33.327-.015.738-.017 1.477 0 2.215.007.277-.077.361-.357.355-.832-.017-1.666.014-2.5-.015-.381-.013-.466.11-.464.472.014 3.322 0 6.645.019 9.967 0 .433-.094.578-.546.55a17.361 17.361 0 0 0-2.071 0c-.444.027-.511-.143-.509-.533.014-3.287 0-6.574.021-9.861 0-.5-.153-.609-.622-.6-1.026.028-2.053 0-3.08-.008z" class="prefix__cls-2" data-name="Path 1754" transform="translate(0 -4.466)"/>
                <path id="prefix__Path_1755" d="M-165.266 446.868a.481.481 0 0 1 .638 0z" class="prefix__cls-2" data-name="Path 1755" transform="translate(-239.224 -124.124)"/>
                <path id="prefix__Path_1756" d="M253.275 446.867a.48.48 0 0 1 .638 0z" class="prefix__cls-2" data-name="Path 1756" transform="translate(-613.235 -124.123)"/>
                <path id="prefix__Path_1757" d="M710.576 322.23c1.218-3.014 2.415-5.936 3.572-8.874a.821.821 0 0 1 .955-.626c.9.05 1.806.026 2.709.007.307-.006.38.093.38.385q-.013 6.538 0 13.077c0 .328-.087.418-.413.407-.743-.024-1.488-.029-2.231 0-.375.015-.47-.094-.468-.464.017-2.5.009-4.992.009-7.487v-.3l-.086-.025c-.174.409-.352.816-.521 1.227-.9 2.192-1.8 4.382-2.682 6.581-.139.348-.306.5-.691.463-.507-.053-1.136.193-1.5-.092s-.448-.885-.639-1.355c-.907-2.222-1.809-4.446-2.743-6.745a1.009 1.009 0 0 0-.091.6c0 2.355-.011 4.711.007 7.066 0 .4-.08.556-.518.533-.724-.039-1.452-.022-2.178 0-.3.007-.439-.042-.438-.395q.018-6.538 0-13.077c0-.289.071-.4.383-.4 1.009.018 2.019.022 3.028 0 .316-.007.418.132.519.388q1.68 4.26 3.379 8.513c.07.163.141.318.258.593z" class="prefix__cls-2" data-name="Path 1757" transform="translate(-1015.123 -4.362)"/>
                <path id="prefix__Path_1758" d="M53.655 317.417c0 2.952-.007 5.851.009 8.749 0 .383-.077.519-.489.5-.742-.037-1.487-.024-2.23 0-.306.008-.385-.093-.385-.389q.013-6.535 0-13.071c0-.333.1-.415.421-.408.9.019 1.806.023 2.708 0a.7.7 0 0 1 .713.4c1.806 2.954 3.62 5.9 5.35 8.9a.9.9 0 0 0 .35.446v-.582c0-2.9.007-5.8-.009-8.7 0-.367.087-.482.465-.466.742.031 1.487.023 2.23 0 .311-.009.424.056.423.4q-.019 6.535 0 13.071c0 .339-.107.406-.42.4-1.009-.019-2.019-.027-3.027 0a.7.7 0 0 1-.7-.411c-1.7-2.792-3.415-5.576-5.051-8.405-.086-.145-.124-.331-.358-.434z" class="prefix__cls-2" data-name="Path 1758" transform="translate(-432.087 -4.417)"/>
                <path id="prefix__Path_1759" d="M-88.4 319.7c0-2.143.009-4.287-.009-6.43 0-.375.063-.526.483-.5.724.039 1.452.03 2.177 0 .365-.014.482.081.476.46-.023 1.44 0 2.881-.018 4.322-.006.392.067.543.511.535q2.416-.045 4.833 0c.443.008.512-.145.506-.532-.021-1.44 0-2.881-.017-4.322-.006-.378.116-.475.479-.462.76.026 1.522.02 2.283 0 .3-.007.393.081.392.384q-.014 6.536 0 13.071c0 .328-.1.422-.419.412-.743-.022-1.488-.028-2.23 0-.389.016-.515-.08-.508-.489.026-1.546 0-3.092.021-4.638.006-.4-.1-.5-.5-.493q-2.443.035-4.886 0c-.383-.005-.47.118-.466.476.018 1.528-.008 3.057.018 4.585.007.42-.072.59-.539.56a18.8 18.8 0 0 0-2.07 0c-.4.019-.535-.083-.53-.51.021-2.14.013-4.284.013-6.429z" class="prefix__cls-2" data-name="Path 1759" transform="translate(-307.898 -4.397)"/>
                <path id="prefix__Path_1760" d="M-320.817 319.716c0-2.144.008-4.289-.008-6.433 0-.357.081-.481.464-.478q3.534.026 7.067 0c.315 0 .433.062.42.4-.028.7-.024 1.406 0 2.109.01.307-.1.377-.389.374-1.311-.014-2.622.016-3.932-.018-.46-.012-.572.133-.541.56a14.635 14.635 0 0 1 0 1.581c-.011.3.1.388.4.385 1.257-.014 2.515 0 3.773-.013.336 0 .471.069.454.432-.03.649-.03 1.3 0 1.95.016.363-.12.442-.457.437-1.24-.017-2.48.005-3.719-.014-.35-.005-.465.1-.45.445.026.632.025 1.266 0 1.9-.013.334.109.416.428.413 1.364-.015 2.728.007 4.091-.014.395-.006.571.066.542.512-.042.665-.025 1.336 0 2 .009.305-.051.431-.4.429q-3.666-.023-7.333 0c-.4 0-.411-.18-.41-.476.003-2.157 0-4.319 0-6.481z" class="prefix__cls-2" data-name="Path 1760" transform="translate(-100.217 -4.431)"/>
                <path id="prefix__Path_1761" d="M344.772 319.7c0-2.143.009-4.287-.008-6.43 0-.361.083-.474.463-.471q3.425.027 6.851 0c.368 0 .491.093.474.466-.03.649-.03 1.3 0 1.949.016.364-.084.479-.464.472-1.256-.024-2.514 0-3.77-.017-.341-.005-.459.078-.443.431.029.649.024 1.3 0 1.949-.011.305.094.379.388.376 1.221-.015 2.443.007 3.664-.015.352-.006.45.1.436.438-.026.667-.026 1.336 0 2 .013.331-.094.412-.418.407-1.221-.019-2.443.006-3.664-.016-.338-.006-.409.1-.406.414.016 1.493-.013 2.987.02 4.48.01.457-.132.558-.562.535a20.481 20.481 0 0 0-2.07 0c-.394.019-.5-.09-.5-.489.021-2.154.009-4.315.009-6.479z" class="prefix__cls-2" data-name="Path 1761" transform="translate(-694.988 -4.43)"/>
                <path id="prefix__Path_1762" d="M199.881 310.677a7.7 7.7 0 0 0-8.563-2.046 7.125 7.125 0 0 0-4.653 6.879 7.247 7.247 0 0 0 5.453 7.218 2.806 2.806 0 0 1 1 .261h.638a.819.819 0 0 1 .638 0h.638c.041-.105.138-.086.221-.1a6.838 6.838 0 0 0 5.8-4.487 7.349 7.349 0 0 0-1.172-7.725zm-5.915 9.26a4.389 4.389 0 1 1 4.443-4.32 4.146 4.146 0 0 1-4.443 4.321z" class="prefix__cls-2" data-name="Path 1762" transform="translate(-553.711 -.244)"/>
                <path id="prefix__Path_1763" d="M443.918 310.165a7.353 7.353 0 0 0-8.113-1.827 6.8 6.8 0 0 0-4.812 6.213 7.291 7.291 0 0 0 5.45 7.942 3.418 3.418 0 0 1 1 .251h.531a.614.614 0 0 1 .744 0h.638c.038-.108.135-.088.218-.1a6.839 6.839 0 0 0 5.842-4.723 7.2 7.2 0 0 0-1.498-7.756zm-5.473 9.533a4.39 4.39 0 1 1 4.241-4.4 4.153 4.153 0 0 1-4.241 4.402z" class="prefix__cls-2" data-name="Path 1763" transform="translate(-772.006)"/>
                <path id="prefix__Path_1764" d="M599.173 326.187c-.984-1.541-1.967-3.082-2.971-4.61-.18-.274-.159-.363.136-.529a4.365 4.365 0 0 0 2.126-5.086 4.142 4.142 0 0 0-4.2-3.12c-1.645-.027-3.292 0-4.937-.017-.314 0-.423.066-.422.4q.018 6.533 0 13.067c0 .345.121.405.428.4.743-.019 1.487-.026 2.229 0 .371.014.478-.091.471-.464-.023-1.387-.012-2.775 0-4.162 0-.155-.1-.406.161-.431.352-.034.694-.1.949.336.866 1.468 1.782 2.906 2.684 4.352.1.154.146.363.4.362 1.056-.006 2.112 0 3.172 0 .015-.239-.136-.358-.226-.498zm-4.861-7.232a8.6 8.6 0 0 1-2.061.11c-.248.008-.228-.164-.229-.323v-1.476c0-.457.02-.915-.007-1.37-.02-.334.107-.427.425-.405a10.107 10.107 0 0 1 1.8.092 1.553 1.553 0 0 1 1.261 1.6 1.622 1.622 0 0 1-1.189 1.772z" class="prefix__cls-2" data-name="Path 1764" transform="translate(-913.154 -4.45)"/>
            </g>
        </g>
    </g>
</svg>
